<?xml version="1.0"?>
<!-- Generated by SVGo -->
<svg width="1096" height="635"
     xmlns="http://www.w3.org/2000/svg"
     xmlns:xlink="http://www.w3.org/1999/xlink">
<rect x="0" y="0" width="1096" height="635" rx="5" ry="5" style="fill:#282d35" />
<circle cx="20" cy="20" r="7" style="fill:#ff5f58" />
<circle cx="43" cy="20" r="7" style="fill:#ffbd2e" />
<circle cx="66" cy="20" r="7" style="fill:#18c132" />
<g style="animation-duration:2.68s;animation-iteration-count:infinite;animation-name:k;animation-timing-function:steps(1,end);font-family:Monaco,Consolas,Menlo,'Bitstream Vera Sans Mono','Powerline Symbols',monospace;font-size:20px">
<style type="text/css">
<![CDATA[
@keyframes k {0.300%{transform:translateX(-0px)}19.784%{transform:translateX(-1096px)}20.615%{transform:translateX(-2192px)}21.675%{transform:translateX(-3288px)}23.251%{transform:translateX(-4384px)}25.659%{transform:translateX(-5480px)}30.116%{transform:translateX(-6576px)}38.008%{transform:translateX(-7672px)}39.257%{transform:translateX(-8768px)}40.209%{transform:translateX(-9864px)}41.532%{transform:translateX(-10960px)}42.704%{transform:translateX(-12056px)}48.101%{transform:translateX(-13152px)}59.996%{transform:translateX(-14248px)}60.937%{transform:translateX(-15344px)}61.921%{transform:translateX(-16440px)}64.070%{transform:translateX(-17536px)}64.941%{transform:translateX(-18632px)}65.707%{transform:translateX(-19728px)}67.328%{transform:translateX(-20824px)}68.495%{transform:translateX(-21920px)}79.045%{transform:translateX(-23016px)}80.411%{transform:translateX(-24112px)}82.024%{transform:translateX(-25208px)}83.760%{transform:translateX(-26304px)}84.563%{transform:translateX(-27400px)}86.739%{transform:translateX(-28496px)}86.780%{transform:translateX(-29592px)}86.823%{transform:translateX(-30688px)}100.000%{transform:translateX(-31784px)}}.a{fill:#e5e5e5}
]]>
</style>
<g transform="translate(20,60)" >
<g transform="translate(0)">
<text x="0" y="0" class="a"  >[root@firearm1-centos8</text>
<text x="253" y="0" class="a"  >~]#</text>
</g>
<g transform="translate(1096)">
<text x="0" y="0" class="a"  >[root@firearm1-centos8</text>
<text x="253" y="0" class="a"  >~]#</text>
<text x="297" y="0" class="a"  >e</text>
</g>
<g transform="translate(2192)">
<text x="0" y="0" class="a"  >[root@firearm1-centos8</text>
<text x="253" y="0" class="a"  >~]#</text>
<text x="297" y="0" class="a"  >ec</text>
</g>
<g transform="translate(3288)">
<text x="0" y="0" class="a"  >[root@firearm1-centos8</text>
<text x="253" y="0" class="a"  >~]#</text>
<text x="297" y="0" class="a"  >ech</text>
</g>
<g transform="translate(4384)">
<text x="0" y="0" class="a"  >[root@firearm1-centos8</text>
<text x="253" y="0" class="a"  >~]#</text>
<text x="297" y="0" class="a"  >echo</text>
</g>
<g transform="translate(5480)">
<text x="0" y="0" class="a"  >[root@firearm1-centos8</text>
<text x="253" y="0" class="a"  >~]#</text>
<text x="297" y="0" class="a"  >echo</text>
</g>
<g transform="translate(6576)">
<text x="0" y="0" class="a"  >[root@firearm1-centos8</text>
<text x="253" y="0" class="a"  >~]#</text>
<text x="297" y="0" class="a"  >echo</text>
<text x="352" y="0" class="a"  >$</text>
</g>
<g transform="translate(7672)">
<text x="0" y="0" class="a"  >[root@firearm1-centos8</text>
<text x="253" y="0" class="a"  >~]#</text>
<text x="297" y="0" class="a"  >echo</text>
<text x="352" y="0" class="a"  >$S</text>
</g>
<g transform="translate(8768)">
<text x="0" y="0" class="a"  >[root@firearm1-centos8</text>
<text x="253" y="0" class="a"  >~]#</text>
<text x="297" y="0" class="a"  >echo</text>
<text x="352" y="0" class="a"  >$SH</text>
</g>
<g transform="translate(9864)">
<text x="0" y="0" class="a"  >[root@firearm1-centos8</text>
<text x="253" y="0" class="a"  >~]#</text>
<text x="297" y="0" class="a"  >echo</text>
<text x="352" y="0" class="a"  >$SHE</text>
</g>
<g transform="translate(10960)">
<text x="0" y="0" class="a"  >[root@firearm1-centos8</text>
<text x="253" y="0" class="a"  >~]#</text>
<text x="297" y="0" class="a"  >echo</text>
<text x="352" y="0" class="a"  >$SHEL</text>
</g>
<g transform="translate(12056)">
<text x="0" y="0" class="a"  >[root@firearm1-centos8</text>
<text x="253" y="0" class="a"  >~]#</text>
<text x="297" y="0" class="a"  >echo</text>
<text x="352" y="0" class="a"  >$SHELL</text>
</g>
<g transform="translate(13152)">
<text x="0" y="0" class="a"  >[root@firearm1-centos8</text>
<text x="253" y="0" class="a"  >~]#</text>
<text x="297" y="0" class="a"  >echo</text>
<text x="352" y="0" class="a"  >$SHELL</text>
<text x="0" y="25" class="a"  >/bin/bash</text>
<text x="0" y="50" class="a"  >[root@firearm1-centos8</text>
<text x="253" y="50" class="a"  >~]#</text>
</g>
<g transform="translate(14248)">
<text x="0" y="0" class="a"  >[root@firearm1-centos8</text>
<text x="253" y="0" class="a"  >~]#</text>
<text x="297" y="0" class="a"  >echo</text>
<text x="352" y="0" class="a"  >$SHELL</text>
<text x="0" y="25" class="a"  >/bin/bash</text>
<text x="0" y="50" class="a"  >[root@firearm1-centos8</text>
<text x="253" y="50" class="a"  >~]#</text>
<text x="297" y="50" class="a"  >l</text>
</g>
<g transform="translate(15344)">
<text x="0" y="0" class="a"  >[root@firearm1-centos8</text>
<text x="253" y="0" class="a"  >~]#</text>
<text x="297" y="0" class="a"  >echo</text>
<text x="352" y="0" class="a"  >$SHELL</text>
<text x="0" y="25" class="a"  >/bin/bash</text>
<text x="0" y="50" class="a"  >[root@firearm1-centos8</text>
<text x="253" y="50" class="a"  >~]#</text>
<text x="297" y="50" class="a"  >ls</text>
</g>
<g transform="translate(16440)">
<text x="0" y="0" class="a"  >[root@firearm1-centos8</text>
<text x="253" y="0" class="a"  >~]#</text>
<text x="297" y="0" class="a"  >echo</text>
<text x="352" y="0" class="a"  >$SHELL</text>
<text x="0" y="25" class="a"  >/bin/bash</text>
<text x="0" y="50" class="a"  >[root@firearm1-centos8</text>
<text x="253" y="50" class="a"  >~]#</text>
<text x="297" y="50" class="a"  >ls</text>
</g>
<g transform="translate(17536)">
<text x="0" y="0" class="a"  >[root@firearm1-centos8</text>
<text x="253" y="0" class="a"  >~]#</text>
<text x="297" y="0" class="a"  >echo</text>
<text x="352" y="0" class="a"  >$SHELL</text>
<text x="0" y="25" class="a"  >/bin/bash</text>
<text x="0" y="50" class="a"  >[root@firearm1-centos8</text>
<text x="253" y="50" class="a"  >~]#</text>
<text x="297" y="50" class="a"  >ls</text>
<text x="330" y="50" class="a"  >/</text>
</g>
<g transform="translate(18632)">
<text x="0" y="0" class="a"  >[root@firearm1-centos8</text>
<text x="253" y="0" class="a"  >~]#</text>
<text x="297" y="0" class="a"  >echo</text>
<text x="352" y="0" class="a"  >$SHELL</text>
<text x="0" y="25" class="a"  >/bin/bash</text>
<text x="0" y="50" class="a"  >[root@firearm1-centos8</text>
<text x="253" y="50" class="a"  >~]#</text>
<text x="297" y="50" class="a"  >ls</text>
<text x="330" y="50" class="a"  >/e</text>
</g>
<g transform="translate(19728)">
<text x="0" y="0" class="a"  >[root@firearm1-centos8</text>
<text x="253" y="0" class="a"  >~]#</text>
<text x="297" y="0" class="a"  >echo</text>
<text x="352" y="0" class="a"  >$SHELL</text>
<text x="0" y="25" class="a"  >/bin/bash</text>
<text x="0" y="50" class="a"  >[root@firearm1-centos8</text>
<text x="253" y="50" class="a"  >~]#</text>
<text x="297" y="50" class="a"  >ls</text>
<text x="330" y="50" class="a"  >/et</text>
</g>
<g transform="translate(20824)">
<text x="0" y="0" class="a"  >[root@firearm1-centos8</text>
<text x="253" y="0" class="a"  >~]#</text>
<text x="297" y="0" class="a"  >echo</text>
<text x="352" y="0" class="a"  >$SHELL</text>
<text x="0" y="25" class="a"  >/bin/bash</text>
<text x="0" y="50" class="a"  >[root@firearm1-centos8</text>
<text x="253" y="50" class="a"  >~]#</text>
<text x="297" y="50" class="a"  >ls</text>
<text x="330" y="50" class="a"  >/etc</text>
</g>
<g transform="translate(21920)">
<text x="0" y="0" class="a"  >[root@firearm1-centos8</text>
<text x="253" y="0" class="a"  >~]#</text>
<text x="297" y="0" class="a"  >echo</text>
<text x="352" y="0" class="a"  >$SHELL</text>
<text x="0" y="25" class="a"  >/bin/bash</text>
<text x="0" y="50" class="a"  >[root@firearm1-centos8</text>
<text x="253" y="50" class="a"  >~]#</text>
<text x="297" y="50" class="a"  >ls</text>
<text x="330" y="50" class="a"  >/etc/</text>
</g>
<g transform="translate(23016)">
<text x="0" y="0" class="a"  >[root@firearm1-centos8</text>
<text x="253" y="0" class="a"  >~]#</text>
<text x="297" y="0" class="a"  >echo</text>
<text x="352" y="0" class="a"  >$SHELL</text>
<text x="0" y="25" class="a"  >/bin/bash</text>
<text x="0" y="50" class="a"  >[root@firearm1-centos8</text>
<text x="253" y="50" class="a"  >~]#</text>
<text x="297" y="50" class="a"  >ls</text>
<text x="330" y="50" class="a"  >/etc/f</text>
</g>
<g transform="translate(24112)">
<text x="0" y="0" class="a"  >[root@firearm1-centos8</text>
<text x="253" y="0" class="a"  >~]#</text>
<text x="297" y="0" class="a"  >echo</text>
<text x="352" y="0" class="a"  >$SHELL</text>
<text x="0" y="25" class="a"  >/bin/bash</text>
<text x="0" y="50" class="a"  >[root@firearm1-centos8</text>
<text x="253" y="50" class="a"  >~]#</text>
<text x="297" y="50" class="a"  >ls</text>
<text x="330" y="50" class="a"  >/etc/fs</text>
</g>
<g transform="translate(25208)">
<text x="0" y="0" class="a"  >[root@firearm1-centos8</text>
<text x="253" y="0" class="a"  >~]#</text>
<text x="297" y="0" class="a"  >echo</text>
<text x="352" y="0" class="a"  >$SHELL</text>
<text x="0" y="25" class="a"  >/bin/bash</text>
<text x="0" y="50" class="a"  >[root@firearm1-centos8</text>
<text x="253" y="50" class="a"  >~]#</text>
<text x="297" y="50" class="a"  >ls</text>
<text x="330" y="50" class="a"  >/etc/fst</text>
</g>
<g transform="translate(26304)">
<text x="0" y="0" class="a"  >[root@firearm1-centos8</text>
<text x="253" y="0" class="a"  >~]#</text>
<text x="297" y="0" class="a"  >echo</text>
<text x="352" y="0" class="a"  >$SHELL</text>
<text x="0" y="25" class="a"  >/bin/bash</text>
<text x="0" y="50" class="a"  >[root@firearm1-centos8</text>
<text x="253" y="50" class="a"  >~]#</text>
<text x="297" y="50" class="a"  >ls</text>
<text x="330" y="50" class="a"  >/etc/fsta</text>
</g>
<g transform="translate(27400)">
<text x="0" y="0" class="a"  >[root@firearm1-centos8</text>
<text x="253" y="0" class="a"  >~]#</text>
<text x="297" y="0" class="a"  >echo</text>
<text x="352" y="0" class="a"  >$SHELL</text>
<text x="0" y="25" class="a"  >/bin/bash</text>
<text x="0" y="50" class="a"  >[root@firearm1-centos8</text>
<text x="253" y="50" class="a"  >~]#</text>
<text x="297" y="50" class="a"  >ls</text>
<text x="330" y="50" class="a"  >/etc/fstab</text>
</g>
<g transform="translate(28496)">
<text x="0" y="0" class="a"  >[root@firearm1-centos8</text>
<text x="253" y="0" class="a"  >~]#</text>
<text x="297" y="0" class="a"  >echo</text>
<text x="352" y="0" class="a"  >$SHELL</text>
<text x="0" y="25" class="a"  >/bin/bash</text>
<text x="0" y="50" class="a"  >[root@firearm1-centos8</text>
<text x="253" y="50" class="a"  >~]#</text>
<text x="297" y="50" class="a"  >ls</text>
<text x="330" y="50" class="a"  >/etc/fstab</text>
</g>
<g transform="translate(29592)">
<text x="0" y="0" class="a"  >[root@firearm1-centos8</text>
<text x="253" y="0" class="a"  >~]#</text>
<text x="297" y="0" class="a"  >echo</text>
<text x="352" y="0" class="a"  >$SHELL</text>
<text x="0" y="25" class="a"  >/bin/bash</text>
<text x="0" y="50" class="a"  >[root@firearm1-centos8</text>
<text x="253" y="50" class="a"  >~]#</text>
<text x="297" y="50" class="a"  >ls</text>
<text x="330" y="50" class="a"  >/etc/fstab</text>
<text x="0" y="75" class="a"  >/etc/fstab</text>
</g>
<g transform="translate(30688)">
<text x="0" y="0" class="a"  >[root@firearm1-centos8</text>
<text x="253" y="0" class="a"  >~]#</text>
<text x="297" y="0" class="a"  >echo</text>
<text x="352" y="0" class="a"  >$SHELL</text>
<text x="0" y="25" class="a"  >/bin/bash</text>
<text x="0" y="50" class="a"  >[root@firearm1-centos8</text>
<text x="253" y="50" class="a"  >~]#</text>
<text x="297" y="50" class="a"  >ls</text>
<text x="330" y="50" class="a"  >/etc/fstab</text>
<text x="0" y="75" class="a"  >/etc/fstab</text>
<text x="0" y="100" class="a"  >[root@firearm1-centos8</text>
<text x="253" y="100" class="a"  >~]#</text>
</g>
<g transform="translate(31784)">
<text x="0" y="0" class="a"  >[root@firearm1-centos8</text>
<text x="253" y="0" class="a"  >~]#</text>
<text x="297" y="0" class="a"  >echo</text>
<text x="352" y="0" class="a"  >$SHELL</text>
<text x="0" y="25" class="a"  >/bin/bash</text>
<text x="0" y="50" class="a"  >[root@firearm1-centos8</text>
<text x="253" y="50" class="a"  >~]#</text>
<text x="297" y="50" class="a"  >ls</text>
<text x="330" y="50" class="a"  >/etc/fstab</text>
<text x="0" y="75" class="a"  >/etc/fstab</text>
<text x="0" y="100" class="a"  >[root@firearm1-centos8</text>
<text x="253" y="100" class="a"  >~]#</text>
<text x="297" y="100" class="a"  >exit</text>
</g>
</g>
</g>
</svg>
