<?xml version="1.0"?>
<!-- Generated by SVGo -->
<svg width="2658" height="1510"
     xmlns="http://www.w3.org/2000/svg"
     xmlns:xlink="http://www.w3.org/1999/xlink">
<rect x="0" y="0" width="2658" height="1510" rx="5" ry="5" style="fill:#282d35" />
<circle cx="20" cy="20" r="7" style="fill:#ff5f58" />
<circle cx="43" cy="20" r="7" style="fill:#ffbd2e" />
<circle cx="66" cy="20" r="7" style="fill:#18c132" />
<g style="animation-duration:2.68s;animation-iteration-count:infinite;animation-name:k;animation-timing-function:steps(1,end);font-family:Monaco,Consolas,Menlo,'Bitstream Vera Sans Mono','Powerline Symbols',monospace;font-size:20px">
<style type="text/css">
<![CDATA[
@keyframes k {0.260%{transform:translateX(-0px)}19.757%{transform:translateX(-2658px)}20.591%{transform:translateX(-5316px)}21.651%{transform:translateX(-7974px)}23.271%{transform:translateX(-10632px)}25.634%{transform:translateX(-13290px)}30.085%{transform:translateX(-15948px)}38.019%{transform:translateX(-18606px)}39.270%{transform:translateX(-21264px)}40.180%{transform:translateX(-23922px)}41.535%{transform:translateX(-26580px)}42.670%{transform:translateX(-29238px)}48.137%{transform:translateX(-31896px)}59.999%{transform:translateX(-34554px)}60.944%{transform:translateX(-37212px)}61.930%{transform:translateX(-39870px)}64.073%{transform:translateX(-42528px)}64.979%{transform:translateX(-45186px)}65.662%{transform:translateX(-47844px)}67.319%{transform:translateX(-50502px)}68.498%{transform:translateX(-53160px)}79.056%{transform:translateX(-55818px)}80.384%{transform:translateX(-58476px)}82.035%{transform:translateX(-61134px)}83.769%{transform:translateX(-63792px)}84.565%{transform:translateX(-66450px)}86.745%{transform:translateX(-69108px)}86.786%{transform:translateX(-71766px)}100.000%{transform:translateX(-74424px)}}.a{fill:#e5e5e5}
]]>
</style>
<g transform="translate(20,60)" >
<g transform="translate(0)">
<text x="0" y="0" class="a"  >[root@firearm1-centos8</text>
<text x="253" y="0" class="a"  >~]#</text>
</g>
<g transform="translate(2658)">
<text x="0" y="0" class="a"  >[root@firearm1-centos8</text>
<text x="253" y="0" class="a"  >~]#</text>
<text x="297" y="0" class="a"  >e</text>
</g>
<g transform="translate(5316)">
<text x="0" y="0" class="a"  >[root@firearm1-centos8</text>
<text x="253" y="0" class="a"  >~]#</text>
<text x="297" y="0" class="a"  >ec</text>
</g>
<g transform="translate(7974)">
<text x="0" y="0" class="a"  >[root@firearm1-centos8</text>
<text x="253" y="0" class="a"  >~]#</text>
<text x="297" y="0" class="a"  >ech</text>
</g>
<g transform="translate(10632)">
<text x="0" y="0" class="a"  >[root@firearm1-centos8</text>
<text x="253" y="0" class="a"  >~]#</text>
<text x="297" y="0" class="a"  >echo</text>
</g>
<g transform="translate(13290)">
<text x="0" y="0" class="a"  >[root@firearm1-centos8</text>
<text x="253" y="0" class="a"  >~]#</text>
<text x="297" y="0" class="a"  >echo</text>
</g>
<g transform="translate(15948)">
<text x="0" y="0" class="a"  >[root@firearm1-centos8</text>
<text x="253" y="0" class="a"  >~]#</text>
<text x="297" y="0" class="a"  >echo</text>
<text x="352" y="0" class="a"  >$</text>
</g>
<g transform="translate(18606)">
<text x="0" y="0" class="a"  >[root@firearm1-centos8</text>
<text x="253" y="0" class="a"  >~]#</text>
<text x="297" y="0" class="a"  >echo</text>
<text x="352" y="0" class="a"  >$S</text>
</g>
<g transform="translate(21264)">
<text x="0" y="0" class="a"  >[root@firearm1-centos8</text>
<text x="253" y="0" class="a"  >~]#</text>
<text x="297" y="0" class="a"  >echo</text>
<text x="352" y="0" class="a"  >$SH</text>
</g>
<g transform="translate(23922)">
<text x="0" y="0" class="a"  >[root@firearm1-centos8</text>
<text x="253" y="0" class="a"  >~]#</text>
<text x="297" y="0" class="a"  >echo</text>
<text x="352" y="0" class="a"  >$SHE</text>
</g>
<g transform="translate(26580)">
<text x="0" y="0" class="a"  >[root@firearm1-centos8</text>
<text x="253" y="0" class="a"  >~]#</text>
<text x="297" y="0" class="a"  >echo</text>
<text x="352" y="0" class="a"  >$SHEL</text>
</g>
<g transform="translate(29238)">
<text x="0" y="0" class="a"  >[root@firearm1-centos8</text>
<text x="253" y="0" class="a"  >~]#</text>
<text x="297" y="0" class="a"  >echo</text>
<text x="352" y="0" class="a"  >$SHELL</text>
</g>
<g transform="translate(31896)">
<text x="0" y="0" class="a"  >[root@firearm1-centos8</text>
<text x="253" y="0" class="a"  >~]#</text>
<text x="297" y="0" class="a"  >echo</text>
<text x="352" y="0" class="a"  >$SHELL</text>
<text x="0" y="25" class="a"  >/bin/bash</text>
<text x="0" y="50" class="a"  >[root@firearm1-centos8</text>
<text x="253" y="50" class="a"  >~]#</text>
</g>
<g transform="translate(34554)">
<text x="0" y="0" class="a"  >[root@firearm1-centos8</text>
<text x="253" y="0" class="a"  >~]#</text>
<text x="297" y="0" class="a"  >echo</text>
<text x="352" y="0" class="a"  >$SHELL</text>
<text x="0" y="25" class="a"  >/bin/bash</text>
<text x="0" y="50" class="a"  >[root@firearm1-centos8</text>
<text x="253" y="50" class="a"  >~]#</text>
<text x="297" y="50" class="a"  >l</text>
</g>
<g transform="translate(37212)">
<text x="0" y="0" class="a"  >[root@firearm1-centos8</text>
<text x="253" y="0" class="a"  >~]#</text>
<text x="297" y="0" class="a"  >echo</text>
<text x="352" y="0" class="a"  >$SHELL</text>
<text x="0" y="25" class="a"  >/bin/bash</text>
<text x="0" y="50" class="a"  >[root@firearm1-centos8</text>
<text x="253" y="50" class="a"  >~]#</text>
<text x="297" y="50" class="a"  >ls</text>
</g>
<g transform="translate(39870)">
<text x="0" y="0" class="a"  >[root@firearm1-centos8</text>
<text x="253" y="0" class="a"  >~]#</text>
<text x="297" y="0" class="a"  >echo</text>
<text x="352" y="0" class="a"  >$SHELL</text>
<text x="0" y="25" class="a"  >/bin/bash</text>
<text x="0" y="50" class="a"  >[root@firearm1-centos8</text>
<text x="253" y="50" class="a"  >~]#</text>
<text x="297" y="50" class="a"  >ls</text>
</g>
<g transform="translate(42528)">
<text x="0" y="0" class="a"  >[root@firearm1-centos8</text>
<text x="253" y="0" class="a"  >~]#</text>
<text x="297" y="0" class="a"  >echo</text>
<text x="352" y="0" class="a"  >$SHELL</text>
<text x="0" y="25" class="a"  >/bin/bash</text>
<text x="0" y="50" class="a"  >[root@firearm1-centos8</text>
<text x="253" y="50" class="a"  >~]#</text>
<text x="297" y="50" class="a"  >ls</text>
<text x="330" y="50" class="a"  >/</text>
</g>
<g transform="translate(45186)">
<text x="0" y="0" class="a"  >[root@firearm1-centos8</text>
<text x="253" y="0" class="a"  >~]#</text>
<text x="297" y="0" class="a"  >echo</text>
<text x="352" y="0" class="a"  >$SHELL</text>
<text x="0" y="25" class="a"  >/bin/bash</text>
<text x="0" y="50" class="a"  >[root@firearm1-centos8</text>
<text x="253" y="50" class="a"  >~]#</text>
<text x="297" y="50" class="a"  >ls</text>
<text x="330" y="50" class="a"  >/e</text>
</g>
<g transform="translate(47844)">
<text x="0" y="0" class="a"  >[root@firearm1-centos8</text>
<text x="253" y="0" class="a"  >~]#</text>
<text x="297" y="0" class="a"  >echo</text>
<text x="352" y="0" class="a"  >$SHELL</text>
<text x="0" y="25" class="a"  >/bin/bash</text>
<text x="0" y="50" class="a"  >[root@firearm1-centos8</text>
<text x="253" y="50" class="a"  >~]#</text>
<text x="297" y="50" class="a"  >ls</text>
<text x="330" y="50" class="a"  >/et</text>
</g>
<g transform="translate(50502)">
<text x="0" y="0" class="a"  >[root@firearm1-centos8</text>
<text x="253" y="0" class="a"  >~]#</text>
<text x="297" y="0" class="a"  >echo</text>
<text x="352" y="0" class="a"  >$SHELL</text>
<text x="0" y="25" class="a"  >/bin/bash</text>
<text x="0" y="50" class="a"  >[root@firearm1-centos8</text>
<text x="253" y="50" class="a"  >~]#</text>
<text x="297" y="50" class="a"  >ls</text>
<text x="330" y="50" class="a"  >/etc</text>
</g>
<g transform="translate(53160)">
<text x="0" y="0" class="a"  >[root@firearm1-centos8</text>
<text x="253" y="0" class="a"  >~]#</text>
<text x="297" y="0" class="a"  >echo</text>
<text x="352" y="0" class="a"  >$SHELL</text>
<text x="0" y="25" class="a"  >/bin/bash</text>
<text x="0" y="50" class="a"  >[root@firearm1-centos8</text>
<text x="253" y="50" class="a"  >~]#</text>
<text x="297" y="50" class="a"  >ls</text>
<text x="330" y="50" class="a"  >/etc/</text>
</g>
<g transform="translate(55818)">
<text x="0" y="0" class="a"  >[root@firearm1-centos8</text>
<text x="253" y="0" class="a"  >~]#</text>
<text x="297" y="0" class="a"  >echo</text>
<text x="352" y="0" class="a"  >$SHELL</text>
<text x="0" y="25" class="a"  >/bin/bash</text>
<text x="0" y="50" class="a"  >[root@firearm1-centos8</text>
<text x="253" y="50" class="a"  >~]#</text>
<text x="297" y="50" class="a"  >ls</text>
<text x="330" y="50" class="a"  >/etc/f</text>
</g>
<g transform="translate(58476)">
<text x="0" y="0" class="a"  >[root@firearm1-centos8</text>
<text x="253" y="0" class="a"  >~]#</text>
<text x="297" y="0" class="a"  >echo</text>
<text x="352" y="0" class="a"  >$SHELL</text>
<text x="0" y="25" class="a"  >/bin/bash</text>
<text x="0" y="50" class="a"  >[root@firearm1-centos8</text>
<text x="253" y="50" class="a"  >~]#</text>
<text x="297" y="50" class="a"  >ls</text>
<text x="330" y="50" class="a"  >/etc/fs</text>
</g>
<g transform="translate(61134)">
<text x="0" y="0" class="a"  >[root@firearm1-centos8</text>
<text x="253" y="0" class="a"  >~]#</text>
<text x="297" y="0" class="a"  >echo</text>
<text x="352" y="0" class="a"  >$SHELL</text>
<text x="0" y="25" class="a"  >/bin/bash</text>
<text x="0" y="50" class="a"  >[root@firearm1-centos8</text>
<text x="253" y="50" class="a"  >~]#</text>
<text x="297" y="50" class="a"  >ls</text>
<text x="330" y="50" class="a"  >/etc/fst</text>
</g>
<g transform="translate(63792)">
<text x="0" y="0" class="a"  >[root@firearm1-centos8</text>
<text x="253" y="0" class="a"  >~]#</text>
<text x="297" y="0" class="a"  >echo</text>
<text x="352" y="0" class="a"  >$SHELL</text>
<text x="0" y="25" class="a"  >/bin/bash</text>
<text x="0" y="50" class="a"  >[root@firearm1-centos8</text>
<text x="253" y="50" class="a"  >~]#</text>
<text x="297" y="50" class="a"  >ls</text>
<text x="330" y="50" class="a"  >/etc/fsta</text>
</g>
<g transform="translate(66450)">
<text x="0" y="0" class="a"  >[root@firearm1-centos8</text>
<text x="253" y="0" class="a"  >~]#</text>
<text x="297" y="0" class="a"  >echo</text>
<text x="352" y="0" class="a"  >$SHELL</text>
<text x="0" y="25" class="a"  >/bin/bash</text>
<text x="0" y="50" class="a"  >[root@firearm1-centos8</text>
<text x="253" y="50" class="a"  >~]#</text>
<text x="297" y="50" class="a"  >ls</text>
<text x="330" y="50" class="a"  >/etc/fstab</text>
</g>
<g transform="translate(69108)">
<text x="0" y="0" class="a"  >[root@firearm1-centos8</text>
<text x="253" y="0" class="a"  >~]#</text>
<text x="297" y="0" class="a"  >echo</text>
<text x="352" y="0" class="a"  >$SHELL</text>
<text x="0" y="25" class="a"  >/bin/bash</text>
<text x="0" y="50" class="a"  >[root@firearm1-centos8</text>
<text x="253" y="50" class="a"  >~]#</text>
<text x="297" y="50" class="a"  >ls</text>
<text x="330" y="50" class="a"  >/etc/fstab</text>
</g>
<g transform="translate(71766)">
<text x="0" y="0" class="a"  >[root@firearm1-centos8</text>
<text x="253" y="0" class="a"  >~]#</text>
<text x="297" y="0" class="a"  >echo</text>
<text x="352" y="0" class="a"  >$SHELL</text>
<text x="0" y="25" class="a"  >/bin/bash</text>
<text x="0" y="50" class="a"  >[root@firearm1-centos8</text>
<text x="253" y="50" class="a"  >~]#</text>
<text x="297" y="50" class="a"  >ls</text>
<text x="330" y="50" class="a"  >/etc/fstab</text>
<text x="0" y="75" class="a"  >/etc/fstab</text>
<text x="0" y="100" class="a"  >[root@firearm1-centos8</text>
<text x="253" y="100" class="a"  >~]#</text>
</g>
<g transform="translate(74424)">
<text x="0" y="0" class="a"  >[root@firearm1-centos8</text>
<text x="253" y="0" class="a"  >~]#</text>
<text x="297" y="0" class="a"  >echo</text>
<text x="352" y="0" class="a"  >$SHELL</text>
<text x="0" y="25" class="a"  >/bin/bash</text>
<text x="0" y="50" class="a"  >[root@firearm1-centos8</text>
<text x="253" y="50" class="a"  >~]#</text>
<text x="297" y="50" class="a"  >ls</text>
<text x="330" y="50" class="a"  >/etc/fstab</text>
<text x="0" y="75" class="a"  >/etc/fstab</text>
<text x="0" y="100" class="a"  >[root@firearm1-centos8</text>
<text x="253" y="100" class="a"  >~]#</text>
<text x="297" y="100" class="a"  >exit</text>
</g>
</g>
</g>
</svg>
